<mxfile host="app.diagrams.net" modified="2023-11-12T12:30:34.852Z" agent="Mozilla/5.0 (Windows NT 10.0; Win64; x64; rv:109.0) Gecko/20100101 Firefox/119.0" etag="_Gv5m0R2i9cD2yrlY-R9" version="22.1.0" type="github">
  <diagram name="Page-1" id="f444Dq4jg0oVg0r-tzo7">
    <mxGraphModel dx="794" dy="494" grid="1" gridSize="10" guides="1" tooltips="1" connect="1" arrows="1" fold="1" page="1" pageScale="1" pageWidth="850" pageHeight="1100" math="0" shadow="0">
      <root>
        <mxCell id="0" />
        <mxCell id="1" parent="0" />
        <mxCell id="x1RwIAT8HSseNqTMqGer-3" value="" style="edgeStyle=orthogonalEdgeStyle;rounded=0;orthogonalLoop=1;jettySize=auto;html=1;" edge="1" parent="1" source="x1RwIAT8HSseNqTMqGer-1" target="x1RwIAT8HSseNqTMqGer-2">
          <mxGeometry relative="1" as="geometry" />
        </mxCell>
        <mxCell id="x1RwIAT8HSseNqTMqGer-1" value="Thesis DDos Ancaman" style="rounded=0;whiteSpace=wrap;html=1;" vertex="1" parent="1">
          <mxGeometry x="120" y="80" width="120" height="60" as="geometry" />
        </mxCell>
        <mxCell id="x1RwIAT8HSseNqTMqGer-5" value="" style="edgeStyle=orthogonalEdgeStyle;rounded=0;orthogonalLoop=1;jettySize=auto;html=1;" edge="1" parent="1" source="x1RwIAT8HSseNqTMqGer-2" target="x1RwIAT8HSseNqTMqGer-4">
          <mxGeometry relative="1" as="geometry" />
        </mxCell>
        <mxCell id="x1RwIAT8HSseNqTMqGer-2" value="&lt;div&gt;Data Tingginya Serangan DDos&lt;/div&gt;" style="whiteSpace=wrap;html=1;rounded=0;" vertex="1" parent="1">
          <mxGeometry x="120" y="220" width="120" height="60" as="geometry" />
        </mxCell>
        <mxCell id="x1RwIAT8HSseNqTMqGer-7" value="" style="edgeStyle=orthogonalEdgeStyle;rounded=0;orthogonalLoop=1;jettySize=auto;html=1;" edge="1" parent="1" source="x1RwIAT8HSseNqTMqGer-4" target="x1RwIAT8HSseNqTMqGer-6">
          <mxGeometry relative="1" as="geometry" />
        </mxCell>
        <mxCell id="x1RwIAT8HSseNqTMqGer-4" value="Cara Kerja DDoS" style="whiteSpace=wrap;html=1;rounded=0;" vertex="1" parent="1">
          <mxGeometry x="120" y="360" width="120" height="60" as="geometry" />
        </mxCell>
        <mxCell id="x1RwIAT8HSseNqTMqGer-6" value="Perlunya Menangani DDos" style="whiteSpace=wrap;html=1;rounded=0;" vertex="1" parent="1">
          <mxGeometry x="120" y="500" width="120" height="60" as="geometry" />
        </mxCell>
        <mxCell id="x1RwIAT8HSseNqTMqGer-10" value="" style="edgeStyle=orthogonalEdgeStyle;rounded=0;orthogonalLoop=1;jettySize=auto;html=1;" edge="1" parent="1" source="x1RwIAT8HSseNqTMqGer-8" target="x1RwIAT8HSseNqTMqGer-9">
          <mxGeometry relative="1" as="geometry" />
        </mxCell>
        <mxCell id="x1RwIAT8HSseNqTMqGer-8" value="Metode IDS" style="rounded=0;whiteSpace=wrap;html=1;" vertex="1" parent="1">
          <mxGeometry x="320" y="80" width="120" height="60" as="geometry" />
        </mxCell>
        <mxCell id="x1RwIAT8HSseNqTMqGer-12" value="" style="edgeStyle=orthogonalEdgeStyle;rounded=0;orthogonalLoop=1;jettySize=auto;html=1;" edge="1" parent="1" source="x1RwIAT8HSseNqTMqGer-9" target="x1RwIAT8HSseNqTMqGer-11">
          <mxGeometry relative="1" as="geometry" />
        </mxCell>
        <mxCell id="x1RwIAT8HSseNqTMqGer-9" value="Kebutuhan akan Model Deteksi yang lebih efektif" style="rounded=0;whiteSpace=wrap;html=1;" vertex="1" parent="1">
          <mxGeometry x="320" y="220" width="120" height="60" as="geometry" />
        </mxCell>
        <mxCell id="x1RwIAT8HSseNqTMqGer-14" value="" style="edgeStyle=orthogonalEdgeStyle;rounded=0;orthogonalLoop=1;jettySize=auto;html=1;" edge="1" parent="1" source="x1RwIAT8HSseNqTMqGer-11" target="x1RwIAT8HSseNqTMqGer-13">
          <mxGeometry relative="1" as="geometry" />
        </mxCell>
        <mxCell id="x1RwIAT8HSseNqTMqGer-11" value="ML sebagai solusi" style="rounded=0;whiteSpace=wrap;html=1;" vertex="1" parent="1">
          <mxGeometry x="320" y="360" width="120" height="60" as="geometry" />
        </mxCell>
        <mxCell id="x1RwIAT8HSseNqTMqGer-13" value="Penelitian dengan model model ML terdahulu" style="whiteSpace=wrap;html=1;rounded=0;" vertex="1" parent="1">
          <mxGeometry x="320" y="500" width="120" height="60" as="geometry" />
        </mxCell>
        <mxCell id="x1RwIAT8HSseNqTMqGer-17" value="" style="edgeStyle=orthogonalEdgeStyle;rounded=0;orthogonalLoop=1;jettySize=auto;html=1;" edge="1" parent="1" source="x1RwIAT8HSseNqTMqGer-15" target="x1RwIAT8HSseNqTMqGer-16">
          <mxGeometry relative="1" as="geometry" />
        </mxCell>
        <mxCell id="x1RwIAT8HSseNqTMqGer-15" value="Kelemahan ANN pada feature selection" style="rounded=0;whiteSpace=wrap;html=1;" vertex="1" parent="1">
          <mxGeometry x="520" y="80" width="120" height="60" as="geometry" />
        </mxCell>
        <mxCell id="x1RwIAT8HSseNqTMqGer-19" value="" style="edgeStyle=orthogonalEdgeStyle;rounded=0;orthogonalLoop=1;jettySize=auto;html=1;" edge="1" parent="1" source="x1RwIAT8HSseNqTMqGer-16" target="x1RwIAT8HSseNqTMqGer-18">
          <mxGeometry relative="1" as="geometry" />
        </mxCell>
        <mxCell id="x1RwIAT8HSseNqTMqGer-16" value="Information Gain sebagai solusi" style="rounded=0;whiteSpace=wrap;html=1;" vertex="1" parent="1">
          <mxGeometry x="520" y="220" width="120" height="60" as="geometry" />
        </mxCell>
        <mxCell id="x1RwIAT8HSseNqTMqGer-18" value="Penerapan IG untuk mengatasi serangan DDoS" style="whiteSpace=wrap;html=1;rounded=0;" vertex="1" parent="1">
          <mxGeometry x="520" y="360" width="120" height="60" as="geometry" />
        </mxCell>
      </root>
    </mxGraphModel>
  </diagram>
</mxfile>
